# xmcd CD Database Entry
#
# Track frame offsets:
# 150
# 19813
# 40640
# 66492
# 92822
# 115304
# 133416
# 154048
#
# Disc length: 2396 seconds
#
# Revision: 1
# Processed by: cddbd v1.4PL0 Copyright (c) Steve Scherf et al.
# Submitted via: tcd 2.0b
#
DISCID=6c095a08
DTITLE=Bottle Of Justus - Sunday Midwestern Afternoon
DYEAR=1900
DGENRE=
TTITLE0=Book By It's Cover
TTITLE1=Willy Said
TTITLE2=Walk Out That Door
TTITLE3=Only In My Dreams
TTITLE4=Paper Plane
TTITLE5=Stranger
TTITLE6=Mrs. Coleman
TTITLE7=Barbara Jeanne
EXTD=
EXTT0=
EXTT1=
EXTT2=
EXTT3=
EXTT4=
EXTT5=
EXTT6=
EXTT7=
PLAYORDER=
